<svg width="20" height="17" viewBox="0 0 20 17" fill="none" xmlns="http://www.w3.org/2000/svg">
<path d="M17.9998 0.5H1.99976C0.899756 0.5 0.00975585 1.4 0.00975585 2.5L-0.000244141 14.5C-0.000244141 15.6 0.899756 16.5 1.99976 16.5H17.9998C19.0998 16.5 19.9998 15.6 19.9998 14.5V2.5C19.9998 1.4 19.0998 0.5 17.9998 0.5ZM16.9998 14.5H2.99976C2.44976 14.5 1.99976 14.05 1.99976 13.5V4.5L8.93976 8.84C9.58976 9.25 10.4098 9.25 11.0598 8.84L17.9998 4.5V13.5C17.9998 14.05 17.5498 14.5 16.9998 14.5ZM9.99976 7.5L1.99976 2.5H17.9998L9.99976 7.5Z" fill="#0094FF"/>
</svg>
