<?xml version="1.0" encoding="utf-8"?>
<!-- Generator: Adobe Illustrator 27.2.0, SVG Export Plug-In . SVG Version: 6.00 Build 0)  -->
<svg version="1.1" id="Capa_1" xmlns="http://www.w3.org/2000/svg" xmlns:xlink="http://www.w3.org/1999/xlink" x="0px" y="0px"
	 viewBox="0 0 1920 976" style="enable-background:new 0 0 1920 976;" xml:space="preserve">
<style type="text/css">
	.st0{clip-path:url(#SVGID_00000008134878588767195670000017154969020804206731_);}
	.st1{fill:#0094FF;}
	.st2{fill-rule:evenodd;clip-rule:evenodd;fill:#FFFFFF;}
</style>
<g>
	<defs>
		<rect id="SVGID_1_" y="0" width="1920" height="976"/>
	</defs>
	<clipPath id="SVGID_00000036958866862095079840000014827404678730842764_">
		<use xlink:href="#SVGID_1_"  style="overflow:visible;"/>
	</clipPath>
	<g style="clip-path:url(#SVGID_00000036958866862095079840000014827404678730842764_);">
		<path class="st1" d="M2123.8-898.3l-960,959.1c-39.1,39-39.1,102.3,0,141.4l960,959.1c39.1,39,102.4,39,141.5,0l960-959.1
			c39.1-39,39.1-102.3,0-141.4l-960-959.1C2226.2-937.4,2162.8-937.4,2123.8-898.3z"/>
		<g>
			<path class="st2" d="M1614.7,644.7c0,1.8-1.5,3.3-3.3,3.3c-1.8,0-3.3-1.5-3.3-3.3c0-1.8,1.5-3.3,3.3-3.3
				C1613.2,641.4,1614.7,642.9,1614.7,644.7z"/>
			<path class="st2" d="M1647.7,644.7c0,1.8-1.5,3.3-3.3,3.3c-1.8,0-3.3-1.5-3.3-3.3c0-1.8,1.5-3.3,3.3-3.3
				C1646.2,641.4,1647.7,642.9,1647.7,644.7z"/>
			<path class="st2" d="M1680.8,644.7c0,1.8-1.5,3.3-3.3,3.3c-1.8,0-3.3-1.5-3.3-3.3c0-1.8,1.5-3.3,3.3-3.3
				C1679.3,641.4,1680.8,642.9,1680.8,644.7z"/>
			<path class="st2" d="M1713.8,644.7c0,1.8-1.5,3.3-3.3,3.3c-1.8,0-3.3-1.5-3.3-3.3c0-1.8,1.5-3.3,3.3-3.3
				C1712.3,641.4,1713.8,642.9,1713.8,644.7z"/>
			<path class="st2" d="M1746.9,644.7c0,1.8-1.5,3.3-3.3,3.3c-1.8,0-3.3-1.5-3.3-3.3c0-1.8,1.5-3.3,3.3-3.3
				C1745.4,641.4,1746.9,642.9,1746.9,644.7z"/>
			<path class="st2" d="M1779.9,644.7c0,1.8-1.5,3.3-3.3,3.3c-1.8,0-3.3-1.5-3.3-3.3c0-1.8,1.5-3.3,3.3-3.3
				C1778.5,641.4,1779.9,642.9,1779.9,644.7z"/>
			<path class="st2" d="M1813,644.7c0,1.8-1.5,3.3-3.3,3.3c-1.8,0-3.3-1.5-3.3-3.3c0-1.8,1.5-3.3,3.3-3.3
				C1811.5,641.4,1813,642.9,1813,644.7z"/>
			<path class="st2" d="M1647.7,677.7c0,1.8-1.5,3.3-3.3,3.3c-1.8,0-3.3-1.5-3.3-3.3c0-1.8,1.5-3.3,3.3-3.3
				C1646.2,674.4,1647.7,675.9,1647.7,677.7z"/>
			<path class="st2" d="M1680.8,677.7c0,1.8-1.5,3.3-3.3,3.3c-1.8,0-3.3-1.5-3.3-3.3c0-1.8,1.5-3.3,3.3-3.3
				C1679.3,674.4,1680.8,675.9,1680.8,677.7z"/>
			<path class="st2" d="M1713.8,677.7c0,1.8-1.5,3.3-3.3,3.3c-1.8,0-3.3-1.5-3.3-3.3c0-1.8,1.5-3.3,3.3-3.3
				C1712.3,674.4,1713.8,675.9,1713.8,677.7z"/>
			<path class="st2" d="M1746.9,677.7c0,1.8-1.5,3.3-3.3,3.3c-1.8,0-3.3-1.5-3.3-3.3c0-1.8,1.5-3.3,3.3-3.3
				C1745.4,674.4,1746.9,675.9,1746.9,677.7z"/>
			<path class="st2" d="M1779.9,677.7c0,1.8-1.5,3.3-3.3,3.3c-1.8,0-3.3-1.5-3.3-3.3c0-1.8,1.5-3.3,3.3-3.3
				C1778.5,674.4,1779.9,675.9,1779.9,677.7z"/>
			<path class="st2" d="M1813,677.7c0,1.8-1.5,3.3-3.3,3.3c-1.8,0-3.3-1.5-3.3-3.3c0-1.8,1.5-3.3,3.3-3.3
				C1811.5,674.4,1813,675.9,1813,677.7z"/>
			<path class="st2" d="M1680.8,710.8c0,1.8-1.5,3.3-3.3,3.3c-1.8,0-3.3-1.5-3.3-3.3c0-1.8,1.5-3.3,3.3-3.3
				C1679.3,707.5,1680.8,708.9,1680.8,710.8z"/>
			<path class="st2" d="M1713.8,710.8c0,1.8-1.5,3.3-3.3,3.3c-1.8,0-3.3-1.5-3.3-3.3c0-1.8,1.5-3.3,3.3-3.3
				C1712.3,707.5,1713.8,708.9,1713.8,710.8z"/>
			<path class="st2" d="M1746.9,710.8c0,1.8-1.5,3.3-3.3,3.3c-1.8,0-3.3-1.5-3.3-3.3c0-1.8,1.5-3.3,3.3-3.3
				C1745.4,707.5,1746.9,708.9,1746.9,710.8z"/>
			<path class="st2" d="M1779.9,710.8c0,1.8-1.5,3.3-3.3,3.3c-1.8,0-3.3-1.5-3.3-3.3c0-1.8,1.5-3.3,3.3-3.3
				C1778.5,707.5,1779.9,708.9,1779.9,710.8z"/>
			<path class="st2" d="M1813,710.8c0,1.8-1.5,3.3-3.3,3.3c-1.8,0-3.3-1.5-3.3-3.3c0-1.8,1.5-3.3,3.3-3.3
				C1811.5,707.5,1813,708.9,1813,710.8z"/>
			<path class="st2" d="M1713.8,743.8c0,1.8-1.5,3.3-3.3,3.3c-1.8,0-3.3-1.5-3.3-3.3c0-1.8,1.5-3.3,3.3-3.3
				C1712.3,740.5,1713.8,742,1713.8,743.8z"/>
			<path class="st2" d="M1746.9,743.8c0,1.8-1.5,3.3-3.3,3.3c-1.8,0-3.3-1.5-3.3-3.3c0-1.8,1.5-3.3,3.3-3.3
				C1745.4,740.5,1746.9,742,1746.9,743.8z"/>
			<path class="st2" d="M1779.9,743.8c0,1.8-1.5,3.3-3.3,3.3c-1.8,0-3.3-1.5-3.3-3.3c0-1.8,1.5-3.3,3.3-3.3
				C1778.5,740.5,1779.9,742,1779.9,743.8z"/>
			<path class="st2" d="M1813,743.8c0,1.8-1.5,3.3-3.3,3.3c-1.8,0-3.3-1.5-3.3-3.3c0-1.8,1.5-3.3,3.3-3.3
				C1811.5,740.5,1813,742,1813,743.8z"/>
			<path class="st2" d="M1746.9,776.8c0,1.8-1.5,3.3-3.3,3.3c-1.8,0-3.3-1.5-3.3-3.3c0-1.8,1.5-3.3,3.3-3.3
				C1745.4,773.5,1746.9,775,1746.9,776.8z"/>
			<path class="st2" d="M1779.9,776.8c0,1.8-1.5,3.3-3.3,3.3c-1.8,0-3.3-1.5-3.3-3.3c0-1.8,1.5-3.3,3.3-3.3
				C1778.5,773.5,1779.9,775,1779.9,776.8z"/>
			<path class="st2" d="M1813,776.8c0,1.8-1.5,3.3-3.3,3.3c-1.8,0-3.3-1.5-3.3-3.3c0-1.8,1.5-3.3,3.3-3.3
				C1811.5,773.5,1813,775,1813,776.8z"/>
			<path class="st2" d="M1779.9,809.8c0,1.8-1.5,3.3-3.3,3.3c-1.8,0-3.3-1.5-3.3-3.3c0-1.8,1.5-3.3,3.3-3.3
				C1778.5,806.5,1779.9,808,1779.9,809.8z"/>
			<path class="st2" d="M1813,809.8c0,1.8-1.5,3.3-3.3,3.3c-1.8,0-3.3-1.5-3.3-3.3c0-1.8,1.5-3.3,3.3-3.3
				C1811.5,806.5,1813,808,1813,809.8z"/>
			<path class="st2" d="M1813,842.9c0,1.8-1.5,3.3-3.3,3.3c-1.8,0-3.3-1.5-3.3-3.3c0-1.8,1.5-3.3,3.3-3.3
				C1811.5,839.6,1813,841,1813,842.9z"/>
		</g>
		<g>
			<path class="st2" d="M1272.3,282.6c0,1.8-1.5,3.3-3.3,3.3c-1.8,0-3.3-1.5-3.3-3.3s1.5-3.3,3.3-3.3
				C1270.8,279.3,1272.3,280.8,1272.3,282.6z"/>
			<path class="st2" d="M1305.3,282.6c0,1.8-1.5,3.3-3.3,3.3c-1.8,0-3.3-1.5-3.3-3.3s1.5-3.3,3.3-3.3
				C1303.9,279.3,1305.3,280.8,1305.3,282.6z"/>
			<path class="st2" d="M1338.4,282.6c0,1.8-1.5,3.3-3.3,3.3c-1.8,0-3.3-1.5-3.3-3.3s1.5-3.3,3.3-3.3
				C1336.9,279.3,1338.4,280.8,1338.4,282.6z"/>
			<path class="st2" d="M1371.5,282.6c0,1.8-1.5,3.3-3.3,3.3c-1.8,0-3.3-1.5-3.3-3.3s1.5-3.3,3.3-3.3
				C1370,279.3,1371.5,280.8,1371.5,282.6z"/>
			<path class="st2" d="M1404.5,282.6c0,1.8-1.5,3.3-3.3,3.3c-1.8,0-3.3-1.5-3.3-3.3s1.5-3.3,3.3-3.3
				C1403,279.3,1404.5,280.8,1404.5,282.6z"/>
			<path class="st2" d="M1305.3,315.6c0,1.8-1.5,3.3-3.3,3.3c-1.8,0-3.3-1.5-3.3-3.3s1.5-3.3,3.3-3.3
				C1303.9,312.3,1305.3,313.8,1305.3,315.6z"/>
			<path class="st2" d="M1338.4,315.6c0,1.8-1.5,3.3-3.3,3.3c-1.8,0-3.3-1.5-3.3-3.3s1.5-3.3,3.3-3.3
				C1336.9,312.3,1338.4,313.8,1338.4,315.6z"/>
			<path class="st2" d="M1371.5,315.6c0,1.8-1.5,3.3-3.3,3.3c-1.8,0-3.3-1.5-3.3-3.3s1.5-3.3,3.3-3.3
				C1370,312.3,1371.5,313.8,1371.5,315.6z"/>
			<path class="st2" d="M1404.5,315.6c0,1.8-1.5,3.3-3.3,3.3c-1.8,0-3.3-1.5-3.3-3.3s1.5-3.3,3.3-3.3
				C1403,312.3,1404.5,313.8,1404.5,315.6z"/>
			<path class="st2" d="M1338.4,348.6c0,1.8-1.5,3.3-3.3,3.3c-1.8,0-3.3-1.5-3.3-3.3c0-1.8,1.5-3.3,3.3-3.3
				C1336.9,345.3,1338.4,346.8,1338.4,348.6z"/>
			<path class="st2" d="M1371.5,348.6c0,1.8-1.5,3.3-3.3,3.3c-1.8,0-3.3-1.5-3.3-3.3c0-1.8,1.5-3.3,3.3-3.3
				C1370,345.3,1371.5,346.8,1371.5,348.6z"/>
			<path class="st2" d="M1404.5,348.6c0,1.8-1.5,3.3-3.3,3.3c-1.8,0-3.3-1.5-3.3-3.3c0-1.8,1.5-3.3,3.3-3.3
				C1403,345.3,1404.5,346.8,1404.5,348.6z"/>
			<path class="st2" d="M1371.5,381.7c0,1.8-1.5,3.3-3.3,3.3c-1.8,0-3.3-1.5-3.3-3.3c0-1.8,1.5-3.3,3.3-3.3
				C1370,378.4,1371.5,379.8,1371.5,381.7z"/>
			<path class="st2" d="M1404.5,381.7c0,1.8-1.5,3.3-3.3,3.3c-1.8,0-3.3-1.5-3.3-3.3c0-1.8,1.5-3.3,3.3-3.3
				C1403,378.4,1404.5,379.8,1404.5,381.7z"/>
			<path class="st2" d="M1404.5,414.7c0,1.8-1.5,3.3-3.3,3.3c-1.8,0-3.3-1.5-3.3-3.3c0-1.8,1.5-3.3,3.3-3.3
				C1403,411.4,1404.5,412.9,1404.5,414.7z"/>
		</g>
	</g>
</g>
</svg>
