<svg width="94" height="33" viewBox="0 0 94 33" fill="none" xmlns="http://www.w3.org/2000/svg">
<g clip-path="url(#clip0_103_11729)">
<path d="M8.0965 32.8572H0V15.5855H16.6105C17.2419 15.5998 17.8618 15.4125 18.3828 15.0501C18.9024 14.6899 19.3344 14.2143 19.6462 13.6594C19.9499 13.1415 20.1103 12.5499 20.1103 11.9471C20.1103 11.3443 19.9499 10.7527 19.6462 10.2348C19.3472 9.66957 18.9127 9.18998 18.3828 8.84046C17.8593 8.48381 17.2408 8.29828 16.6105 8.30874H0V0.87207H16.6105C19.0566 0.87207 21.1659 1.42982 22.8943 2.56391C24.5392 3.61482 25.8909 5.07693 26.8199 6.81024C27.6801 8.38274 28.1442 10.1467 28.1711 11.9453C28.1735 13.3718 27.8933 14.7843 27.3472 16.0987C26.7847 17.4724 25.9365 18.7065 24.8608 19.7166C23.7723 20.7972 22.4829 21.6471 21.0677 22.2165C19.6525 22.786 18.1398 23.0636 16.6178 23.0333H8.0965V32.8572Z" fill="white"/>
<path d="M80.7638 9.08629L76.3768 0.861328L60.0776 32.8576H68.5293L80.7638 9.08629Z" fill="white"/>
<path d="M83.9989 15.3999L77.4331 27.7968H82.0398L84.6215 32.8575H93.1501L83.9989 15.3999Z" fill="white"/>
<path d="M59.5855 10.73C58.7496 8.92293 57.6207 7.27131 56.2458 5.84407C54.7472 4.323 52.981 3.10084 51.0386 2.241C48.924 1.32215 46.6446 0.858763 44.3446 0.880099H32.8389V8.31677V15.6716H40.0821V8.30188H44.3446C45.4323 8.28191 46.5127 8.48688 47.52 8.9043C48.5272 9.32172 49.4403 9.94287 50.2037 10.73C51.0365 11.5406 51.7003 12.513 52.1555 13.5894C52.5993 14.6254 52.8286 15.7429 52.8293 16.8726C52.8233 18.0018 52.5942 19.1183 52.1555 20.1559C51.6972 21.2306 51.0424 22.2072 50.2256 23.0339C49.4689 23.7909 48.5697 24.3853 47.5818 24.7815C46.5521 25.2223 45.4436 25.4413 44.3263 25.4248H32.8169V32.8615L44.3446 32.8392C46.5797 32.832 48.7912 32.3758 50.8518 31.4969C52.8111 30.6823 54.5995 29.4961 56.1213 28.0016C57.6428 26.5171 58.8502 24.7331 59.6697 22.7588C60.4582 20.8783 60.869 18.8569 60.8782 16.8132C60.8941 14.7135 60.4527 12.6362 59.5855 10.73Z" fill="white"/>
</g>
<defs>
<clipPath id="clip0_103_11729">
<rect width="93.1556" height="32" fill="white" transform="translate(0 0.856934)"/>
</clipPath>
</defs>
</svg>
