<svg width="20" height="21" viewBox="0 0 20 21" fill="none" xmlns="http://www.w3.org/2000/svg">
<path d="M8.24976 11.5C8.24976 12.19 7.68976 12.75 6.99976 12.75C6.30976 12.75 5.74976 12.19 5.74976 11.5C5.74976 10.81 6.30976 10.25 6.99976 10.25C7.68976 10.25 8.24976 10.81 8.24976 11.5ZM12.9998 10.25C12.3098 10.25 11.7498 10.81 11.7498 11.5C11.7498 12.19 12.3098 12.75 12.9998 12.75C13.6898 12.75 14.2498 12.19 14.2498 11.5C14.2498 10.81 13.6898 10.25 12.9998 10.25ZM19.9998 10.5C19.9998 16.02 15.5198 20.5 9.99976 20.5C4.47976 20.5 -0.000244141 16.02 -0.000244141 10.5C-0.000244141 4.98 4.47976 0.5 9.99976 0.5C15.5198 0.5 19.9998 4.98 19.9998 10.5ZM8.65976 2.62C10.0598 4.94 12.5998 6.5 15.4998 6.5C15.9598 6.5 16.4098 6.45 16.8398 6.38C15.4398 4.06 12.8998 2.5 9.99976 2.5C9.53976 2.5 9.08976 2.55 8.65976 2.62ZM2.41976 7.97C4.12976 7 5.44976 5.42 6.07976 3.53C4.36976 4.5 3.04976 6.08 2.41976 7.97ZM17.9998 10.5C17.9998 9.72 17.8798 8.97 17.6698 8.26C16.9698 8.41 16.2498 8.5 15.4998 8.5C12.3698 8.5 9.57976 7.06 7.73976 4.81C6.68976 7.37 4.59976 9.38 1.99976 10.36C2.00976 10.4 1.99976 10.45 1.99976 10.5C1.99976 14.91 5.58976 18.5 9.99976 18.5C14.4098 18.5 17.9998 14.91 17.9998 10.5Z" fill="#0094FF"/>
</svg>
